<svg width="40" height="40" viewBox="0 0 40 40" fill="none" xmlns="http://www.w3.org/2000/svg">
<path d="M36.0502 4.54782C35.1002 3.66449 33.8503 3.24789 32.6503 3.36455H32.4336C29.0336 3.66455 24.0337 5.26533 20.8337 7.082V36.3659C20.8337 36.4825 20.8336 36.5816 20.8003 36.6816C20.867 36.6649 20.9169 36.6319 20.9669 36.5986C24.0169 34.9153 29.5003 33.1151 32.9503 32.6484L33.5003 32.5817C35.7003 32.315 37.5003 30.2655 37.5003 28.0488V7.93161C37.5003 6.61494 36.967 5.41449 36.0336 4.54782H36.0502ZM18.3502 7.23174C18.3502 7.23174 18.3502 7.132 18.3502 7.082C15.1502 5.26533 10.0503 3.63161 6.61694 3.34828C5.31694 3.24828 4.0669 3.6486 3.13357 4.51527C2.18357 5.3986 1.66699 6.59867 1.66699 7.91533V28.0488C1.66699 30.2655 3.45023 32.315 5.63357 32.5817L6.13365 32.6484C9.56698 33.1151 15.0502 34.9153 18.1502 36.5986C18.2169 36.6319 18.3003 36.6812 18.3836 36.6979C18.3503 36.5979 18.3337 36.4825 18.3337 36.3659V7.23174H18.3502ZM8.76691 13.0488H12.5169C13.2002 13.0488 13.7669 13.5988 13.7669 14.2988C13.7669 14.9988 13.2002 15.5488 12.5169 15.5488H8.76691C8.06691 15.5488 7.51691 14.9821 7.51691 14.2988C7.51691 13.6155 8.06691 13.0488 8.76691 13.0488ZM13.7669 20.5488H8.76691C8.06691 20.5488 7.51691 19.9821 7.51691 19.2988C7.51691 18.6155 8.06691 18.0488 8.76691 18.0488H13.7669C14.4502 18.0488 15.0169 18.5988 15.0169 19.2988C15.0169 19.9988 14.4502 20.5488 13.7669 20.5488Z" fill="white"/>
</svg>
