<svg width="155" height="42" viewBox="0 0 155 42" fill="none" xmlns="http://www.w3.org/2000/svg">
<path d="M24.5745 19.4867C24.5336 14.9571 28.2997 12.7534 28.4719 12.6508C26.339 9.55477 23.0331 9.13175 21.8714 9.09802C19.0948 8.8071 16.4016 10.7522 14.9872 10.7522C13.5446 10.7522 11.3665 9.12613 9.01909 9.17391C5.99835 9.22029 3.17239 10.9616 1.62249 13.6655C-1.57611 19.1789 0.809433 27.2809 3.87394 31.7374C5.4069 33.92 7.19818 36.3569 9.54279 36.2712C11.8366 36.1771 12.6934 34.8152 15.4615 34.8152C18.2041 34.8152 19.0087 36.2712 21.3999 36.2164C23.8617 36.1771 25.4116 34.024 26.8909 31.8218C28.6624 29.3202 29.3739 26.8565 29.4021 26.73C29.3442 26.7104 24.6211 24.9157 24.5745 19.4867Z" fill="white"/>
<path d="M20.0575 6.16631C21.2912 4.63022 22.1353 2.54041 21.901 0.419678C20.1154 0.49838 17.8823 1.64939 16.5964 3.15175C15.4586 4.47563 14.4423 6.64555 14.7049 8.68618C16.7107 8.83515 18.7702 7.67851 20.0575 6.16631Z" fill="white"/>
<path d="M57.7701 35.9576H54.5644L52.8084 30.4639H46.7048L45.0321 35.9576H41.9111L47.9583 17.2546H51.6933L57.7701 35.9576ZM52.2791 28.1591L50.6911 23.2753C50.5231 22.7764 50.2083 21.6015 49.7439 19.752H49.6874C49.5025 20.5475 49.2047 21.7224 48.7953 23.2753L47.2356 28.1591H52.2791Z" fill="white"/>
<path d="M73.3206 29.0487C73.3206 31.3423 72.6981 33.1552 71.4531 34.4861C70.338 35.6709 68.9533 36.2625 67.3003 36.2625C65.5161 36.2625 64.2344 35.6245 63.4538 34.3484H63.3973V41.4526H60.3879V26.9111C60.3879 25.4691 60.3498 23.9893 60.2764 22.4714H62.9231L63.091 24.609H63.1475C64.1511 22.9985 65.6742 22.1946 67.7181 22.1946C69.316 22.1946 70.65 22.8228 71.7171 24.0806C72.7871 25.3398 73.3206 26.9954 73.3206 29.0487ZM70.2547 29.1583C70.2547 27.8457 69.9583 26.7635 69.3626 25.9118C68.7119 25.0236 67.8381 24.5795 66.7427 24.5795C66.0003 24.5795 65.3255 24.8269 64.7228 25.3145C64.1186 25.8064 63.7234 26.4487 63.5385 27.2441C63.4453 27.6152 63.3987 27.9187 63.3987 28.1576V30.4063C63.3987 31.3872 63.7008 32.215 64.305 32.891C64.9091 33.567 65.694 33.9043 66.6595 33.9043C67.7929 33.9043 68.6752 33.4686 69.3061 32.6001C69.9385 31.7301 70.2547 30.5833 70.2547 29.1583Z" fill="white"/>
<path d="M88.9003 29.0487C88.9003 31.3423 88.2778 33.1552 87.0314 34.4861C85.9176 35.6709 84.5329 36.2625 82.88 36.2625C81.0957 36.2625 79.814 35.6245 79.0349 34.3484H78.9784V41.4526H75.9689V26.9111C75.9689 25.4691 75.9308 23.9893 75.8574 22.4714H78.5041L78.6721 24.609H78.7285C79.7308 22.9985 81.2538 22.1946 83.2992 22.1946C84.8957 22.1946 86.2296 22.8228 87.2996 24.0806C88.3653 25.3398 88.9003 26.9954 88.9003 29.0487ZM85.8344 29.1583C85.8344 27.8457 85.5365 26.7635 84.9408 25.9118C84.2901 25.0236 83.4192 24.5795 82.3224 24.5795C81.5785 24.5795 80.9052 24.8269 80.301 25.3145C79.6969 25.8064 79.303 26.4487 79.1181 27.2441C79.0264 27.6152 78.9784 27.9187 78.9784 28.1576V30.4063C78.9784 31.3872 79.2805 32.215 79.8818 32.891C80.4859 33.5656 81.2708 33.9043 82.2391 33.9043C83.3726 33.9043 84.2548 33.4686 84.8858 32.6001C85.5182 31.7301 85.8344 30.5833 85.8344 29.1583Z" fill="white"/>
<path d="M106.32 30.7128C106.32 32.3037 105.765 33.598 104.651 34.5973C103.428 35.6893 101.724 36.2345 99.5345 36.2345C97.5131 36.2345 95.8927 35.8467 94.666 35.0695L95.3633 32.5721C96.6846 33.3675 98.1342 33.7667 99.7138 33.7667C100.847 33.7667 101.729 33.5109 102.363 33.0021C102.994 32.4934 103.309 31.8104 103.309 30.9587C103.309 30.1998 103.049 29.5604 102.528 29.0418C102.01 28.5232 101.145 28.0411 99.9368 27.5956C96.6479 26.3743 95.0048 24.5853 95.0048 22.2327C95.0048 20.6952 95.5807 19.4345 96.734 18.4536C97.883 17.4712 99.4159 16.9807 101.333 16.9807C103.042 16.9807 104.462 17.2772 105.596 17.8689L104.843 20.3115C103.785 19.7381 102.588 19.4514 101.248 19.4514C100.189 19.4514 99.3623 19.7114 98.7694 20.2286C98.2683 20.6909 98.0171 21.2545 98.0171 21.9221C98.0171 22.6613 98.3036 23.2726 98.8795 23.7533C99.3806 24.1974 100.291 24.678 101.612 25.1966C103.229 25.8445 104.416 26.602 105.179 27.4705C105.94 28.3363 106.32 29.4198 106.32 30.7128Z" fill="white"/>
<path d="M116.27 24.7202H112.953V31.2679C112.953 32.9333 113.537 33.7653 114.708 33.7653C115.246 33.7653 115.692 33.7189 116.045 33.6262L116.129 35.9015C115.536 36.1222 114.755 36.2332 113.788 36.2332C112.6 36.2332 111.671 35.872 111 35.151C110.333 34.4287 109.997 33.2172 109.997 31.5153V24.7174H108.021V22.4688H109.997V19.9995L112.953 19.1113V22.4688H116.27V24.7202Z" fill="white"/>
<path d="M131.236 29.1038C131.236 31.1767 130.64 32.8787 129.452 34.2096C128.205 35.5798 126.551 36.2628 124.489 36.2628C122.501 36.2628 120.919 35.6065 119.739 34.2939C118.559 32.9812 117.969 31.3243 117.969 29.3272C117.969 27.2374 118.576 25.5257 119.794 24.1948C121.009 22.8624 122.65 22.1963 124.712 22.1963C126.699 22.1963 128.299 22.8526 129.505 24.1666C130.66 25.4413 131.236 27.087 131.236 29.1038ZM128.114 29.2007C128.114 27.957 127.847 26.8903 127.306 26.0007C126.675 24.9242 125.773 24.3873 124.605 24.3873C123.395 24.3873 122.476 24.9256 121.845 26.0007C121.304 26.8917 121.037 27.9753 121.037 29.257C121.037 30.5007 121.304 31.5674 121.845 32.4556C122.496 33.5322 123.405 34.069 124.578 34.069C125.727 34.069 126.629 33.5209 127.279 32.4275C127.834 31.521 128.114 30.4431 128.114 29.2007Z" fill="white"/>
<path d="M141.018 25.1065C140.721 25.0517 140.403 25.0236 140.07 25.0236C139.011 25.0236 138.193 25.4214 137.617 26.2182C137.115 26.9209 136.864 27.8091 136.864 28.8814V35.9576H133.856L133.884 26.7185C133.884 25.1642 133.846 23.7489 133.771 22.4728H136.393L136.503 25.0531H136.586C136.904 24.1663 137.405 23.4524 138.091 22.917C138.761 22.4349 139.485 22.1946 140.266 22.1946C140.544 22.1946 140.795 22.2143 141.018 22.2494V25.1065Z" fill="white"/>
<path d="M154.477 28.5766C154.477 29.1135 154.442 29.566 154.367 29.9356H145.339C145.374 31.2679 145.81 32.2868 146.649 32.9895C147.41 33.6177 148.393 33.9325 149.602 33.9325C150.938 33.9325 152.158 33.7203 153.255 33.2945L153.726 35.3745C152.445 35.931 150.931 36.2079 149.185 36.2079C147.085 36.2079 145.436 35.5923 144.236 34.3626C143.039 33.1329 142.439 31.4815 142.439 29.41C142.439 27.3764 142.997 25.6829 144.114 24.3323C145.282 22.8904 146.862 22.1694 148.849 22.1694C150.802 22.1694 152.279 22.8904 153.283 24.3323C154.078 25.4777 154.477 26.8944 154.477 28.5766ZM151.608 27.7994C151.627 26.9112 151.431 26.1439 151.023 25.496C150.502 24.6626 149.702 24.2466 148.625 24.2466C147.641 24.2466 146.841 24.6528 146.23 25.4679C145.728 26.1158 145.431 26.8929 145.339 27.798H151.608V27.7994Z" fill="white"/>
<path d="M51.284 5.74896C51.284 7.4031 50.7857 8.64827 49.7906 9.48448C48.8688 10.256 47.5589 10.6425 45.8622 10.6425C45.0209 10.6425 44.301 10.606 43.6982 10.5329V1.49484C44.4845 1.36836 45.3314 1.30371 46.2461 1.30371C47.8624 1.30371 49.0805 1.65365 49.9021 2.35354C50.8224 3.14477 51.284 4.27611 51.284 5.74896ZM49.7242 5.78971C49.7242 4.7174 49.4391 3.89525 48.8688 3.32185C48.2985 2.74986 47.4657 2.46316 46.3689 2.46316C45.9031 2.46316 45.5065 2.49408 45.1776 2.55872V9.42967C45.3597 9.45778 45.6928 9.47043 46.177 9.47043C47.309 9.47043 48.1828 9.15703 48.7982 8.53022C49.4137 7.90342 49.7242 6.98992 49.7242 5.78971Z" fill="white"/>
<path d="M59.5543 7.19363C59.5543 8.21254 59.2621 9.04734 58.6777 9.70225C58.0651 10.3754 57.2535 10.7113 56.24 10.7113C55.2631 10.7113 54.4854 10.3895 53.9052 9.74301C53.3265 9.09794 53.0371 8.28422 53.0371 7.30326C53.0371 6.27732 53.3349 5.43549 53.9335 4.78199C54.532 4.12848 55.3365 3.80103 56.3501 3.80103C57.3269 3.80103 58.1117 4.12286 58.706 4.76793C59.2706 5.39474 59.5543 6.20424 59.5543 7.19363ZM58.0199 7.24142C58.0199 6.63007 57.8872 6.10586 57.6233 5.66879C57.3127 5.14036 56.8709 4.87615 56.2964 4.87615C55.7021 4.87615 55.2504 5.14036 54.9399 5.66879C54.6745 6.10586 54.5433 6.63851 54.5433 7.26812C54.5433 7.87947 54.6759 8.40368 54.9399 8.84075C55.2603 9.36918 55.7064 9.63339 56.2823 9.63339C56.8469 9.63339 57.2902 9.36496 57.6092 8.8267C57.883 8.38119 58.0199 7.85276 58.0199 7.24142Z" fill="white"/>
<path d="M70.6439 3.93579L68.5619 10.5608H67.2068L66.3443 7.68396C66.1255 6.96581 65.9476 6.25187 65.8093 5.54356H65.7825C65.654 6.27155 65.4762 6.98408 65.2475 7.68396L64.3314 10.5608H62.9608L61.0029 3.93579H62.5232L63.2755 7.08527C63.4576 7.83013 63.6073 8.53985 63.7272 9.21162H63.7541C63.8642 8.6579 64.0463 7.95239 64.3032 7.09932L65.2475 3.9372H66.453L67.3578 7.03186C67.5766 7.78656 67.7544 8.51314 67.8914 9.21303H67.9323C68.0325 8.53141 68.1836 7.80483 68.384 7.03186L69.1914 3.9372H70.6439V3.93579Z" fill="white"/>
<path d="M78.313 10.5608H76.8337V6.76622C76.8337 5.59693 76.3877 5.01229 75.4927 5.01229C75.0537 5.01229 74.6994 5.17251 74.4242 5.49434C74.1518 5.81618 74.0134 6.19563 74.0134 6.6299V10.5594H72.5341V5.82882C72.5341 5.24699 72.5158 4.61597 72.4805 3.93295H73.7805L73.8497 4.96873H73.8906C74.0628 4.64689 74.3197 4.38127 74.6571 4.16906C75.058 3.92171 75.5069 3.79663 75.9981 3.79663C76.6192 3.79663 77.1358 3.9962 77.5466 4.39673C78.0576 4.88721 78.313 5.61942 78.313 6.59195V10.5608Z" fill="white"/>
<path d="M82.392 10.5609H80.9141V0.895996H82.392V10.5609Z" fill="white"/>
<path d="M91.1012 7.19363C91.1012 8.21254 90.809 9.04734 90.2246 9.70225C89.612 10.3754 88.7989 10.7113 87.7868 10.7113C86.8086 10.7113 86.0308 10.3895 85.4521 9.74301C84.8734 9.09794 84.584 8.28422 84.584 7.30326C84.584 6.27732 84.8818 5.43549 85.4803 4.78199C86.0788 4.12848 86.8834 3.80103 87.8955 3.80103C88.8737 3.80103 89.6571 4.12286 90.2528 4.76793C90.8174 5.39474 91.1012 6.20424 91.1012 7.19363ZM89.5654 7.24142C89.5654 6.63007 89.4327 6.10586 89.1687 5.66879C88.8596 5.14036 88.4164 4.87615 87.8433 4.87615C87.2476 4.87615 86.7959 5.14036 86.4868 5.66879C86.2214 6.10586 86.0901 6.63851 86.0901 7.26812C86.0901 7.87947 86.2228 8.40368 86.4868 8.84075C86.8072 9.36918 87.2533 9.63339 87.8292 9.63339C88.3938 9.63339 88.8356 9.36496 89.1546 8.8267C89.4299 8.38119 89.5654 7.85276 89.5654 7.24142Z" fill="white"/>
<path d="M98.2606 10.5609H96.9323L96.8222 9.79782H96.7813C96.3268 10.4064 95.6789 10.7113 94.8376 10.7113C94.2094 10.7113 93.7013 10.5104 93.3187 10.1112C92.9715 9.74863 92.7979 9.2975 92.7979 8.76205C92.7979 7.95255 93.1366 7.33558 93.8184 6.90834C94.4988 6.4811 95.4558 6.2717 96.6881 6.28154V6.15786C96.6881 5.28512 96.228 4.84945 95.3062 4.84945C94.6498 4.84945 94.0711 5.01388 93.5714 5.33993L93.2707 4.37302C93.889 3.99216 94.6527 3.80103 95.5532 3.80103C97.2923 3.80103 98.1646 4.71453 98.1646 6.54153V8.98129C98.1646 9.64323 98.1971 10.1702 98.2606 10.5609ZM96.7248 8.28422V7.2625C95.0931 7.23439 94.2772 7.6799 94.2772 8.59762C94.2772 8.94335 94.3703 9.20194 94.5609 9.3748C94.7515 9.54766 94.9942 9.63339 95.2836 9.63339C95.6083 9.63339 95.9118 9.5308 96.1884 9.32702C96.4665 9.12183 96.6373 8.86183 96.7008 8.54281C96.7164 8.47113 96.7248 8.384 96.7248 8.28422Z" fill="white"/>
<path d="M106.667 10.5609H105.354L105.285 9.49698H105.244C104.824 10.3065 104.11 10.7112 103.107 10.7112C102.305 10.7112 101.637 10.3978 101.108 9.77103C100.578 9.14423 100.314 8.33051 100.314 7.33127C100.314 6.25896 100.601 5.39043 101.177 4.72709C101.734 4.10872 102.418 3.79953 103.231 3.79953C104.124 3.79953 104.75 4.09888 105.105 4.69898H105.134V0.895996H106.614V8.77601C106.614 9.42109 106.631 10.0156 106.667 10.5609ZM105.134 7.76694V6.66231C105.134 6.47118 105.119 6.31658 105.093 6.19853C105.009 5.84437 104.83 5.54643 104.558 5.30611C104.282 5.06579 103.951 4.94492 103.568 4.94492C103.016 4.94492 102.584 5.16276 102.267 5.59983C101.952 6.03691 101.792 6.59485 101.792 7.27646C101.792 7.93137 101.943 8.46261 102.247 8.87158C102.567 9.30725 102.999 9.52509 103.54 9.52509C104.025 9.52509 104.414 9.34379 104.709 8.97979C104.994 8.64391 105.134 8.23915 105.134 7.76694Z" fill="white"/>
<path d="M119.319 7.19363C119.319 8.21254 119.027 9.04734 118.442 9.70225C117.83 10.3754 117.02 10.7113 116.005 10.7113C115.029 10.7113 114.251 10.3895 113.67 9.74301C113.091 9.09794 112.802 8.28422 112.802 7.30326C112.802 6.27732 113.1 5.43549 113.698 4.78199C114.297 4.12848 115.101 3.80103 116.116 3.80103C117.091 3.80103 117.878 4.12286 118.471 4.76793C119.035 5.39474 119.319 6.20424 119.319 7.19363ZM117.786 7.24142C117.786 6.63007 117.653 6.10586 117.389 5.66879C117.077 5.14036 116.637 4.87615 116.061 4.87615C115.468 4.87615 115.017 5.14036 114.705 5.66879C114.439 6.10586 114.308 6.63851 114.308 7.26812C114.308 7.87947 114.441 8.40368 114.705 8.84075C115.025 9.36918 115.471 9.63339 116.047 9.63339C116.612 9.63339 117.056 9.36496 117.375 8.8267C117.648 8.38119 117.786 7.85276 117.786 7.24142Z" fill="white"/>
<path d="M127.273 10.5608H125.795V6.76622C125.795 5.59693 125.349 5.01229 124.452 5.01229C124.013 5.01229 123.659 5.17251 123.385 5.49434C123.111 5.81618 122.974 6.19563 122.974 6.6299V10.5594H121.494V5.82882C121.494 5.24699 121.477 4.61597 121.441 3.93295H122.74L122.809 4.96873H122.85C123.024 4.64689 123.281 4.38127 123.617 4.16906C124.019 3.92171 124.466 3.79663 124.959 3.79663C125.579 3.79663 126.095 3.9962 126.506 4.39673C127.018 4.88721 127.273 5.61942 127.273 6.59195V10.5608Z" fill="white"/>
<path d="M137.228 5.03905H135.599V8.25739C135.599 9.07533 135.889 9.48429 136.462 9.48429C136.727 9.48429 136.947 9.46181 137.121 9.41543L137.159 10.5327C136.867 10.6423 136.483 10.6971 136.01 10.6971C135.426 10.6971 134.971 10.5201 134.642 10.1659C134.312 9.81175 134.148 9.21586 134.148 8.37966V5.03905H133.176V3.93582H134.148V2.72156L135.598 2.28589V3.93441H137.227V5.03905H137.228Z" fill="white"/>
<path d="M145.06 10.5609H143.579V6.79441C143.579 5.60686 143.133 5.01238 142.24 5.01238C141.554 5.01238 141.085 5.3567 140.828 6.04534C140.785 6.1901 140.759 6.36718 140.759 6.57517V10.5595H139.281V0.895996H140.759V4.88871H140.787C141.253 4.16212 141.921 3.79953 142.786 3.79953C143.399 3.79953 143.906 3.99909 144.308 4.39963C144.809 4.89854 145.06 5.64059 145.06 6.62155V10.5609Z" fill="white"/>
<path d="M153.139 6.935C153.139 7.19921 153.119 7.42126 153.083 7.60256H148.647C148.667 8.25747 148.878 8.75638 149.289 9.10211C149.665 9.41129 150.149 9.56589 150.742 9.56589C151.398 9.56589 151.997 9.46189 152.536 9.25248L152.767 10.2756C152.136 10.5483 151.394 10.6846 150.534 10.6846C149.504 10.6846 148.692 10.3824 148.105 9.7781C147.515 9.17378 147.223 8.36287 147.223 7.34537C147.223 6.34614 147.495 5.51415 148.044 4.8508C148.617 4.14249 149.392 3.78833 150.37 3.78833C151.327 3.78833 152.054 4.14249 152.546 4.8508C152.942 5.41296 153.139 6.10863 153.139 6.935ZM151.727 6.55414C151.738 6.11706 151.641 5.74042 151.44 5.4228C151.184 5.01383 150.793 4.80864 150.263 4.80864C149.78 4.80864 149.387 5.00821 149.086 5.40874C148.84 5.72777 148.695 6.10863 148.647 6.55414H151.727Z" fill="white"/>
</svg>
