<svg width="173" height="41" viewBox="0 0 173 41" fill="none" xmlns="http://www.w3.org/2000/svg">
<path d="M86.9484 22.0813C85.7044 22.0871 84.49 22.4597 83.4584 23.152C82.4269 23.8444 81.6245 24.8255 81.1525 25.9714C80.6805 27.1174 80.56 28.3769 80.8063 29.591C81.0526 30.805 81.6546 31.9193 82.5363 32.793C83.418 33.6668 84.54 34.2609 85.7605 34.5004C86.9811 34.7399 88.2455 34.614 89.3943 34.1387C90.5431 33.6634 91.5247 32.8599 92.2152 31.8296C92.9058 30.7994 93.2743 29.5886 93.2743 28.35C93.2864 27.521 93.1308 26.698 92.8168 25.93C92.5028 25.1621 92.0368 24.4649 91.4465 23.88C90.8563 23.2951 90.1539 22.8344 89.3811 22.5254C88.6083 22.2164 87.781 22.0653 86.9484 22.0813ZM86.9484 32.1555C86.1833 32.2088 85.4198 32.0317 84.7572 31.6472C84.0946 31.2627 83.5634 30.6887 83.2328 29.9997C82.9022 29.3107 82.7875 28.5386 82.9034 27.7838C83.0194 27.029 83.3608 26.3264 83.8831 25.7673C84.4055 25.2083 85.0847 24.8186 85.8325 24.6489C86.5802 24.4792 87.362 24.5375 88.076 24.816C88.7901 25.0946 89.4035 25.5806 89.8365 26.2108C90.2695 26.8411 90.5021 27.5864 90.5039 28.35C90.5278 28.8338 90.4541 29.3175 90.2872 29.7725C90.1204 30.2275 89.8637 30.6447 89.5323 30.9994C89.2009 31.354 88.8016 31.6391 88.3578 31.8376C87.914 32.0362 87.4348 32.1443 86.9484 32.1555ZM73.1558 22.0813C71.9111 22.0842 70.6953 22.4543 69.6618 23.1449C68.6283 23.8355 67.8236 24.8155 67.3493 25.9613C66.8751 27.107 66.7525 28.3669 66.9971 29.582C67.2417 30.797 67.8425 31.9126 68.7237 32.7879C69.6048 33.6631 70.7267 34.2587 71.9477 34.4994C73.1686 34.74 74.4339 34.615 75.5835 34.1401C76.7331 33.6653 77.7156 32.8618 78.4068 31.8312C79.098 30.8006 79.4669 29.5892 79.4669 28.35C79.479 27.521 79.3234 26.698 79.0094 25.93C78.6954 25.1621 78.2294 24.4649 77.6391 23.88C77.0489 23.2951 76.3465 22.8344 75.5737 22.5254C74.8009 22.2164 73.9736 22.0653 73.141 22.0813H73.1558ZM73.1558 32.1555C72.3903 32.2118 71.6256 32.0373 70.9612 31.6548C70.2967 31.2723 69.7633 30.6995 69.4304 30.011C69.0975 29.3225 68.9804 28.5501 69.0946 27.7944C69.2087 27.0387 69.5487 26.3348 70.0703 25.7742C70.5919 25.2136 71.2709 24.8223 72.019 24.6513C72.767 24.4803 73.5495 24.5375 74.2644 24.8154C74.9794 25.0934 75.5938 25.5792 76.0276 26.2096C76.4613 26.84 76.6944 27.5858 76.6965 28.35C76.7204 28.8338 76.6467 29.3175 76.4798 29.7725C76.3129 30.2275 76.0563 30.6447 75.7249 30.9994C75.3935 31.354 74.9941 31.6391 74.5504 31.8376C74.1066 32.0362 73.6274 32.1443 73.141 32.1555H73.1558ZM56.7261 24.0135V26.6685H63.1261C63.0258 27.919 62.5037 29.099 61.6447 30.0168C61.0044 30.6661 60.2346 31.1748 59.385 31.5101C58.5353 31.8455 57.6246 32 56.7113 31.9638C54.8253 31.9638 53.0166 31.2178 51.683 29.8901C50.3494 28.5623 49.6002 26.7615 49.6002 24.8838C49.6002 23.006 50.3494 21.2052 51.683 19.8774C53.0166 18.5497 54.8253 17.8038 56.7113 17.8038C58.5155 17.7745 60.2576 18.4587 61.5558 19.7065L63.4373 17.8333C62.5609 16.9498 61.5154 16.2504 60.3626 15.7766C59.2098 15.3028 57.9732 15.0642 56.7261 15.075C55.4091 15.024 54.0953 15.2382 52.8634 15.7048C51.6315 16.1714 50.5068 16.8808 49.5569 17.7905C48.607 18.7002 47.8512 19.7915 47.335 20.9989C46.8188 22.2063 46.5527 23.5051 46.5527 24.8174C46.5527 26.1297 46.8188 27.4284 47.335 28.6359C47.8512 29.8433 48.607 30.9346 49.5569 31.8443C50.5068 32.754 51.6315 33.4634 52.8634 33.93C54.0953 34.3966 55.4091 34.6108 56.7261 34.5598C57.9942 34.6168 59.2599 34.4028 60.4379 33.9321C61.616 33.4614 62.6791 32.745 63.5558 31.831C65.1079 30.1332 65.9366 27.9012 65.8669 25.6065C65.8717 25.0475 65.8221 24.4893 65.7187 23.9398L56.7261 24.0135ZM123.852 26.0785C123.466 24.9468 122.743 23.9586 121.78 23.2448C120.817 22.531 119.659 22.1252 118.459 22.0813C117.649 22.0797 116.847 22.2436 116.103 22.5629C115.359 22.8822 114.688 23.3501 114.133 23.9376C113.577 24.5251 113.149 25.2198 112.874 25.9788C112.599 26.7377 112.483 27.5448 112.534 28.35C112.516 29.1744 112.665 29.994 112.972 30.7597C113.279 31.5255 113.738 32.2217 114.322 32.8068C114.905 33.392 115.601 33.854 116.368 34.1653C117.135 34.4766 117.957 34.6308 118.785 34.6188C119.822 34.6243 120.843 34.3739 121.758 33.89C122.674 33.406 123.454 32.7037 124.03 31.8458L121.882 30.3708C121.561 30.9029 121.107 31.3431 120.564 31.6482C120.022 31.9533 119.409 32.1128 118.785 32.1113C118.144 32.1356 117.509 31.9672 116.965 31.6278C116.421 31.2885 115.992 30.7939 115.734 30.2085L124.163 26.7423L123.852 26.0785ZM115.259 28.173C115.229 27.7168 115.291 27.2592 115.441 26.827C115.591 26.3948 115.826 25.9967 116.132 25.6561C116.438 25.3154 116.81 25.039 117.225 24.8431C117.64 24.6471 118.09 24.5356 118.548 24.515C119.026 24.4837 119.503 24.5928 119.919 24.8288C120.335 25.0648 120.672 25.4173 120.889 25.8425L115.259 28.173ZM108.415 34.25H111.185V15.8125H108.415V34.25ZM103.882 23.4825H103.778C103.36 23.0177 102.849 22.6461 102.277 22.3919C101.705 22.1377 101.086 22.0067 100.459 22.0075C98.8405 22.0857 97.3138 22.781 96.1957 23.9495C95.0777 25.1179 94.4541 26.6698 94.4541 28.2836C94.4541 29.8974 95.0777 31.4494 96.1957 32.6178C97.3138 33.7862 98.8405 34.4816 100.459 34.5598C101.087 34.5703 101.71 34.4436 102.283 34.1888C102.856 33.934 103.367 33.5571 103.778 33.0848H103.867V33.9845C103.867 36.3888 102.578 37.672 100.504 37.672C99.8131 37.6559 99.1428 37.4355 98.5782 37.0389C98.0136 36.6423 97.5804 36.0873 97.3336 35.4448L94.9187 36.4478C95.3733 37.5486 96.1478 38.4892 97.1429 39.1489C98.1381 39.8085 99.3084 40.1571 100.504 40.15C103.748 40.15 106.43 38.2473 106.43 33.6158V22.45H103.882V23.4825ZM100.711 32.1555C99.7557 32.0717 98.8663 31.6344 98.2184 30.93C97.5705 30.2256 97.2111 29.3051 97.2111 28.35C97.2111 27.3949 97.5705 26.4744 98.2184 25.77C98.8663 25.0656 99.7557 24.6284 100.711 24.5445C101.185 24.5687 101.649 24.6871 102.076 24.8927C102.504 25.0982 102.885 25.3868 103.199 25.7415C103.512 26.0961 103.751 26.5096 103.901 26.9576C104.052 27.4056 104.11 27.879 104.074 28.35C104.115 28.823 104.058 29.2993 103.909 29.75C103.759 30.2007 103.519 30.6165 103.203 30.9722C102.887 31.328 102.502 31.6162 102.072 31.8196C101.641 32.023 101.173 32.1373 100.697 32.1555H100.711ZM136.83 15.8125H130.208V34.25H132.978V27.2585H136.845C137.634 27.315 138.427 27.2089 139.174 26.9469C139.92 26.6849 140.604 26.2725 141.184 25.7356C141.763 25.1986 142.226 24.5485 142.542 23.8259C142.858 23.1033 143.021 22.3236 143.021 21.5355C143.021 20.7474 142.858 19.9677 142.542 19.2451C142.226 18.5225 141.763 17.8724 141.184 17.3355C140.604 16.7985 139.92 16.3862 139.174 16.1241C138.427 15.8621 137.634 15.756 136.845 15.8125H136.83ZM136.83 24.6625H132.963V18.379H136.889C137.732 18.379 138.54 18.7123 139.136 19.3057C139.732 19.899 140.067 20.7038 140.067 21.5429C140.067 22.382 139.732 23.1867 139.136 23.7801C138.54 24.3734 137.732 24.7068 136.889 24.7068L136.83 24.6625ZM153.911 22.0075C152.903 21.9475 151.899 22.1821 151.022 22.6826C150.146 23.1831 149.435 23.9277 148.978 24.8248L151.437 25.8425C151.68 25.3976 152.047 25.0324 152.494 24.7915C152.941 24.5506 153.449 24.4443 153.956 24.4855C154.307 24.4446 154.664 24.4739 155.004 24.5715C155.344 24.6692 155.661 24.8334 155.937 25.0544C156.213 25.2755 156.442 25.549 156.61 25.8591C156.779 26.1691 156.884 26.5095 156.919 26.8603V27.052C156.029 26.583 155.037 26.3398 154.03 26.344C151.378 26.344 148.697 27.819 148.697 30.4888C148.723 31.058 148.863 31.6163 149.11 32.1305C149.356 32.6448 149.704 33.1045 150.132 33.4827C150.56 33.8609 151.06 34.1497 151.603 34.3322C152.145 34.5146 152.718 34.587 153.289 34.545C153.987 34.5949 154.685 34.4569 155.311 34.1454C155.936 33.834 156.466 33.3606 156.845 32.775H156.934V34.25H159.6V27.1553C159.6 23.925 157.141 22.0518 153.985 22.0518L153.911 22.0075ZM153.571 32.1113C152.667 32.1113 151.408 31.654 151.408 30.5478C151.408 29.0728 152.978 28.586 154.371 28.586C155.251 28.5644 156.12 28.7783 156.889 29.2055C156.796 30.0041 156.417 30.7424 155.821 31.2845C155.225 31.8266 154.452 32.1359 153.645 32.1555L153.571 32.1113ZM169.319 22.45L166.148 30.4445H166.059L162.771 22.45H159.808L164.741 33.6305L161.926 39.8403H164.815L172.4 22.45H169.319ZM144.415 34.25H147.185V15.8125H144.415V34.25Z" fill="white"/>
<path d="M56.1604 5.19625C56.1856 5.73726 56.1001 6.27772 55.9091 6.78483C55.7181 7.29194 55.4255 7.75512 55.0493 8.14625C54.6291 8.58077 54.1217 8.92226 53.5602 9.14845C52.9986 9.37464 52.3954 9.48046 51.79 9.45899C50.8715 9.45184 49.9755 9.17494 49.2143 8.66301C48.4531 8.15108 47.8606 7.42687 47.511 6.58114C47.1615 5.73541 47.0703 4.80577 47.2491 3.9087C47.4278 3.01163 47.8685 2.18704 48.5159 1.53825C48.9414 1.10575 49.4515 0.764787 50.0147 0.536449C50.5779 0.308112 51.1821 0.197257 51.79 0.210746C52.4163 0.208669 53.0364 0.334157 53.6122 0.579496C54.1483 0.794778 54.6255 1.13344 55.0048 1.56775L54.2196 2.34949C53.924 1.99932 53.5505 1.72241 53.1288 1.54066C52.7072 1.3589 52.2488 1.27728 51.79 1.30225C51.3273 1.29999 50.8688 1.39079 50.4422 1.5692C50.0155 1.74762 49.6294 2.00998 49.3071 2.34056C48.9848 2.67113 48.7328 3.0631 48.5663 3.49298C48.3998 3.92286 48.3222 4.38179 48.3382 4.84225C48.3285 5.52979 48.5235 6.2048 48.8987 6.78212C49.2738 7.35944 49.8123 7.81319 50.4462 8.08615C51.0801 8.35911 51.781 8.43904 52.4605 8.31586C53.1399 8.19267 53.7675 7.8719 54.2641 7.394C54.72 6.90214 54.9829 6.26341 55.0048 5.5945H51.79V4.5325H56.1011C56.1406 4.75155 56.1605 4.97368 56.1604 5.19625ZM62.9456 1.50875H58.9456V4.31124H62.59V5.37325H58.9456V8.17575H62.9456V9.26725H57.7604V0.417245H62.9456V1.50875ZM67.8048 9.26725H66.6641V1.50875H64.1752V0.417245H70.353V1.50875H67.8048V9.26725ZM74.7085 9.26725V0.417245H75.8493V9.26725H74.7085ZM80.9159 9.26725H79.7752V1.50875H77.2863V0.417245H83.39V1.50875H80.9159V9.26725ZM94.9604 8.11674C94.0943 8.97423 92.9225 9.45556 91.7011 9.45556C90.4797 9.45556 89.3079 8.97423 88.4419 8.11674C87.6 7.22957 87.1311 6.05534 87.1311 4.83487C87.1311 3.6144 87.6 2.44017 88.4419 1.553C88.8688 1.12487 89.3765 0.785074 89.9359 0.553197C90.4953 0.321321 91.0952 0.201943 91.7011 0.201943C92.3071 0.201943 92.907 0.321321 93.4664 0.553197C94.0257 0.785074 94.5335 1.12487 94.9604 1.553C95.8055 2.43848 96.2768 3.61334 96.2768 4.83487C96.2768 6.0564 95.8055 7.23126 94.9604 8.11674ZM89.2863 7.37924C89.9277 8.01515 90.796 8.37218 91.7011 8.37218C92.6063 8.37218 93.4746 8.01515 94.1159 7.37924C94.7489 6.68455 95.0995 5.78018 95.0995 4.84225C95.0995 3.90431 94.7489 2.99994 94.1159 2.30525C93.4746 1.66934 92.6063 1.31231 91.7011 1.31231C90.796 1.31231 89.9277 1.66934 89.2863 2.30525C88.6534 2.99994 88.3028 3.90431 88.3028 4.84225C88.3028 5.78018 88.6534 6.68455 89.2863 7.37924ZM97.8789 9.26725V0.417245H99.2715L103.597 7.3055V0.417245H104.738V9.26725H103.553L99.0345 2.0545V9.26725H97.8789Z" fill="white"/>
<path fill-rule="evenodd" clip-rule="evenodd" d="M91.7011 0.349443C91.1147 0.349443 90.5342 0.46497 89.9928 0.689366C89.4521 0.913529 88.9611 1.24191 88.5483 1.65562C87.7333 2.51526 87.2792 3.65268 87.2792 4.83487C87.2792 6.01691 87.7331 7.15419 88.548 8.01379C89.3861 8.84277 90.5196 9.30806 91.7011 9.30806C92.8827 9.30806 94.0163 8.8427 94.8545 8.01361C95.6725 7.15572 96.1286 6.01788 96.1286 4.83487C96.1286 3.65172 95.6724 2.51374 94.8541 1.65581C94.4413 1.24201 93.9503 0.913564 93.4094 0.689366C92.8681 0.46497 92.2875 0.349443 91.7011 0.349443ZM89.8789 0.417028C90.4564 0.177671 91.0757 0.0544434 91.7011 0.0544434C92.3266 0.0544434 92.9459 0.177671 93.5233 0.417028C94.1007 0.656385 94.6249 1.00714 95.0655 1.44908L95.0678 1.45137C95.9391 2.36427 96.4249 3.57553 96.4249 4.83487C96.4249 6.09422 95.9391 7.30545 95.0678 8.21835L95.0649 8.22138C94.1711 9.10635 92.9617 9.60306 91.7011 9.60306C90.4406 9.60306 89.2312 9.1063 88.3374 8.22133L88.3341 8.21809C87.4663 7.30353 86.9829 6.09301 86.9829 4.83487C86.9829 3.57673 87.4664 2.36626 88.3342 1.4517L88.3367 1.44905C88.7774 1.00711 89.3015 0.656385 89.8789 0.417028ZM51.7867 0.35821C51.1991 0.345171 50.615 0.452329 50.0706 0.673056C49.5262 0.893783 49.0331 1.22338 48.6218 1.64146L48.621 1.64221C47.9942 2.2704 47.5675 3.06882 47.3944 3.93741C47.2213 4.80599 47.3095 5.70612 47.648 6.52501C47.9865 7.34389 48.5602 8.0451 49.2972 8.54078C50.0342 9.03647 50.9018 9.30457 51.7912 9.3115L51.7953 9.31153C52.3799 9.33225 52.9623 9.23013 53.5046 9.01171C54.0468 8.79332 54.5367 8.46362 54.9424 8.0441C55.3047 7.66743 55.5864 7.22139 55.7703 6.73304C55.9543 6.24465 56.0366 5.72412 56.0124 5.20307L56.1604 5.19625L56.0122 5.19619C56.0123 5.0234 55.9999 4.8509 55.9751 4.68H51.9382V5.447H55.1579L55.1529 5.59931C55.1298 6.30362 54.8529 6.97614 54.373 7.49402L54.3672 7.50022C53.8496 7.99837 53.1952 8.33257 52.487 8.46097C51.7787 8.58937 51.0482 8.50606 50.3874 8.22153C49.7267 7.93701 49.1653 7.46402 48.7743 6.86224C48.3839 6.26147 48.1806 5.5592 48.19 4.84375C48.1739 4.36465 48.2548 3.88721 48.4281 3.43991C48.6017 2.9915 48.8646 2.58263 49.2008 2.23781C49.537 1.89299 49.9398 1.61932 50.3848 1.43321C50.8285 1.24767 51.3051 1.15297 51.7863 1.15473C52.2666 1.12928 52.7463 1.21504 53.1877 1.4053C53.5811 1.57485 53.9345 1.82327 54.2261 2.13443L54.8004 1.56263C54.4527 1.19466 54.0285 0.905701 53.5568 0.716288L53.5539 0.71513C52.9967 0.477705 52.3966 0.356235 51.7905 0.358246L51.7867 0.35821ZM56.3085 5.19286C56.3341 5.75268 56.2454 6.31188 56.0478 6.83663C55.8497 7.36245 55.5464 7.84272 55.1563 8.24827C54.7217 8.69773 54.1966 9.05122 53.6157 9.28518C53.0355 9.51889 52.4123 9.62836 51.7868 9.60647C50.8398 9.59869 49.9161 9.31304 49.1314 8.78524C48.346 8.25705 47.7347 7.50986 47.374 6.63728C47.0134 5.7647 46.9193 4.80554 47.1038 3.88C47.2882 2.95462 47.7427 2.10399 48.4105 1.43466C48.8501 0.987922 49.3771 0.635725 49.9588 0.399843C50.5402 0.164131 51.1639 0.0495752 51.7914 0.0632412C52.4368 0.0613574 53.0757 0.19068 53.6691 0.443287C54.2263 0.667312 54.7223 1.01947 55.1166 1.47096L55.2073 1.57477L54.2102 2.56751L54.1062 2.44441C53.8253 2.11175 53.4706 1.84869 53.07 1.67602C52.6694 1.50335 52.234 1.42581 51.7981 1.44953L51.7893 1.45001C51.3465 1.44784 50.9078 1.53447 50.4995 1.7052C50.0913 1.87592 49.7218 2.12698 49.4134 2.4433C49.105 2.75962 48.8638 3.1347 48.7045 3.54605C48.5452 3.9574 48.4709 4.39655 48.4862 4.83716L48.4865 4.84432C48.4772 5.50274 48.6638 6.14914 49.023 6.70199C49.3823 7.25485 49.898 7.68938 50.505 7.95077C51.1121 8.21216 51.7832 8.28871 52.4339 8.17074C53.0832 8.05303 53.683 7.74691 54.1581 7.29088C54.5534 6.86299 54.7948 6.31827 54.8473 5.742H51.6419V4.385H56.225L56.2469 4.50642C56.2878 4.73298 56.3084 4.96269 56.3085 5.19286ZM57.6122 0.269745H63.0937V1.65625H59.0937V4.16374H62.7382V5.52075H59.0937V8.02825H63.0937V9.41475H57.6122V0.269745ZM57.9085 0.564745V9.11975H62.7974V8.32325H58.7974V5.22575H62.4419V4.45874H58.7974V1.36125H62.7974V0.564745H57.9085ZM64.0271 0.269745H70.5011V1.65625H67.953V9.41475H66.5159V1.65625H64.0271V0.269745ZM64.3233 0.564745V1.36125H66.8122V9.11975H67.6567V1.36125H70.2048V0.564745H64.3233ZM74.5604 0.269745H75.9974V9.41475H74.5604V0.269745ZM74.8567 0.564745V9.11975H75.7011V0.564745H74.8567ZM77.1382 0.269745H83.5382V1.65625H81.0641V9.41475H79.627V1.65625H77.1382V0.269745ZM77.4345 0.564745V1.36125H79.9233V9.11975H80.7678V1.36125H83.2419V0.564745H77.4345ZM97.7308 0.269745H99.3536L103.449 6.79138V0.269745H104.886V9.41475H103.471L99.1826 2.56969V9.41475H97.7308V0.269745ZM98.0271 0.564745V9.11975H98.8863V1.5393L103.635 9.11975H104.59V0.564745H103.746V7.81961L99.1894 0.564745H98.0271ZM89.1818 2.20073C89.8509 1.5373 90.7568 1.16481 91.7011 1.16481C92.6455 1.16481 93.5513 1.5373 94.2205 2.20073L94.2258 2.20602C94.8835 2.92785 95.2476 3.86767 95.2476 4.84225C95.2476 5.81682 94.8833 6.75651 94.2257 7.47835L94.2206 7.4839C93.5515 8.14733 92.6455 8.51968 91.7011 8.51968C90.7568 8.51968 89.8509 8.14719 89.1818 7.48376L89.2863 7.37924L89.1766 7.47835C88.5189 6.75651 88.1546 5.81682 88.1546 4.84225C88.1546 3.86767 88.5189 2.92798 89.1766 2.20615L89.1818 2.20073ZM89.3935 7.27738C90.0069 7.8841 90.8364 8.22468 91.7011 8.22468C92.5658 8.22468 93.3954 7.8841 94.0087 7.27738C94.6154 6.61019 94.9513 5.7423 94.9513 4.84225C94.9513 3.94219 94.6154 3.0743 94.0087 2.40711C93.3954 1.80039 92.5658 1.45982 91.7011 1.45982C90.8364 1.45982 90.0069 1.80039 89.3935 2.40711C88.7869 3.0743 88.4509 3.94219 88.4509 4.84225C88.4509 5.7423 88.7869 6.61019 89.3935 7.27738Z" fill="white"/>
<path d="M1.54915 38.2304L19.6982 19.4887L1.56436 0.780518C1.08001 1.07178 0.780273 1.74617 0.780273 2.62894V36.3999C0.786769 37.2826 1.07566 37.9077 1.54915 38.2304Z" fill="white"/>
<path d="M20.3483 18.971L25.7543 13.3877L3.7392 0.921617C3.3685 0.699187 2.94741 0.581699 2.51855 0.581055L20.3461 18.9688L20.3483 18.971Z" fill="white"/>
<path d="M20.3479 20.0083L2.46387 38.4767C2.91274 38.4844 3.35487 38.3634 3.74099 38.1272L25.7995 25.6275L20.3479 20.0083Z" fill="white"/>
<path d="M33.7294 17.9112L26.4033 13.7551L20.8496 19.4908L26.4446 25.2623L33.7272 21.1174C35.2758 20.2369 35.2758 18.7873 33.7294 17.9112Z" fill="white"/>
</svg>
