<svg width="24" height="24" viewBox="0 0 24 24" fill="none" xmlns="http://www.w3.org/2000/svg">
<path d="M20.8159 13.859C19.7923 14.2002 18.7542 14.4794 17.7015 14.7025C17.861 12.9032 17.8608 11.0988 17.7007 9.29946C18.752 9.5105 19.7904 9.78923 20.8159 10.131C20.8844 10.1539 21.0211 10.1977 21.1786 10.1977H21.8165L21.6642 9.57828C21.5023 8.91984 21.2755 8.29363 20.9844 7.68983L20.8889 7.4918L20.6784 7.42829C19.5835 7.09792 18.4726 6.83689 17.354 6.63617C17.1513 5.51553 16.8822 4.40591 16.5626 3.31558L16.4989 3.09813L16.2933 3.00271C15.694 2.72444 15.0707 2.49838 14.4236 2.3366L13.8023 2.18129V2.82168C13.8023 2.94563 13.8211 3.06884 13.8748 3.20196C14.2135 4.21212 14.4909 5.24317 14.7069 6.28924C12.9113 6.12953 11.0945 6.12966 9.29882 6.28964C9.50889 5.2443 9.78622 4.21309 10.1253 3.20195C10.1791 3.06859 10.1977 2.94533 10.1977 2.82168V2.18598L9.57987 2.33575C8.86544 2.50895 8.17522 2.76829 7.52992 3.09094L6.63549 3.53815L7.28086 3.86084C7.02818 4.77696 6.81943 5.70071 6.6547 6.63623C5.52599 6.83883 4.41562 7.10738 3.31631 7.42684L3.09805 7.49027L3.00233 7.69642C2.72394 8.29605 2.49776 8.92 2.33589 9.57828L2.18358 10.1977H2.82143C2.93643 10.1977 3.07048 10.1817 3.21125 10.1254C4.22238 9.78629 5.25359 9.50946 6.29915 9.29953C6.13914 11.0929 6.13911 12.8973 6.299 14.697C5.24734 14.4798 4.21094 14.2006 3.19555 13.8594L3.19438 13.859C3.06891 13.8171 2.93099 13.8023 2.82143 13.8023H2.18573L2.3355 14.4201C2.50866 15.1344 2.76778 15.8251 3.0905 16.4705L3.69497 17.6794L3.93018 16.7386C4.82638 16.983 5.73449 17.1857 6.65446 17.3463C6.84575 18.4419 7.09647 19.5201 7.4066 20.582L7.62222 20.5191L7.52992 20.9101C8.17522 21.2327 8.86544 21.4921 9.57987 21.6653L10.1977 21.815V21.1793C10.1977 21.0648 10.1819 20.9309 10.1257 20.7902C9.78626 19.7698 9.50894 18.7439 9.29895 17.7013C10.1966 17.7813 11.0917 17.8211 12 17.8211C12.9057 17.8211 13.806 17.7817 14.7059 17.6966C14.4913 18.7351 14.2162 19.7602 13.8804 20.772C13.8007 20.9426 13.8018 21.1034 13.8023 21.1677C13.8023 21.172 13.8023 21.1759 13.8023 21.1793V21.8197L14.4236 21.6644C15.0705 21.5027 15.6949 21.2764 16.2863 20.9968L16.4878 20.9016L16.5516 20.6881C16.8811 19.5866 17.1513 18.4753 17.3542 17.3462C18.2674 17.1856 19.1741 16.983 20.0699 16.7386L20.3051 17.6795L20.9096 16.4705C21.2323 15.8251 21.4914 15.1344 21.6646 14.4201L21.8143 13.8023H21.1786C21.0756 13.8023 20.9386 13.818 20.8159 13.859ZM1.5 12C1.5 6.20854 6.21817 1.5 12 1.5C17.7915 1.5 22.5 6.21817 22.5 12C22.5 17.7815 17.7815 22.5 12 22.5C6.21817 22.5 1.5 17.7915 1.5 12Z" fill="#FF9721" stroke="white"/>
<path d="M15.1213 15.1108C13.0535 15.341 10.9573 15.341 8.88952 15.1108C8.65922 13.043 8.65922 10.947 8.88952 8.87926C10.9573 8.64897 13.0535 8.64897 15.1213 8.87926C15.3516 10.947 15.3515 13.043 15.1213 15.1108Z" fill="#FF9721" stroke="white"/>
</svg>
