<svg width="40" height="40" viewBox="0 0 40 40" fill="none" xmlns="http://www.w3.org/2000/svg">
<path d="M22.9437 17.2472C23.3103 17.8806 23.277 18.6639 22.8604 19.3806L21.0937 22.4639C20.8603 22.8806 20.4437 23.0972 20.0104 23.0972C19.7937 23.0972 19.577 23.0472 19.3937 22.9306C18.7937 22.5972 18.577 21.8306 18.927 21.2306L20.327 18.7472H18.9437C18.1104 18.7472 17.4103 18.3806 17.0603 17.7472C16.6937 17.1139 16.727 16.3472 17.1437 15.6139L18.927 12.5306C19.277 11.9306 20.027 11.7306 20.627 12.0639C21.227 12.4139 21.427 13.1806 21.0937 13.7806L19.6603 16.2472H21.0604C21.8937 16.2472 22.5937 16.6139 22.9437 17.2472Z" fill="white"/>
<path d="M32.9104 9.88049C31.0437 6.13049 27.4437 3.34715 23.277 2.43049C18.8937 1.48049 14.4103 2.51381 10.9937 5.26381C7.56034 8.01381 5.61035 12.1138 5.61035 16.4972C5.61035 21.1305 8.39369 25.9972 12.5937 28.8138V30.2972C12.577 30.8138 12.5437 31.5805 13.1603 32.1971C13.7604 32.8138 14.6437 32.8971 15.3604 32.8971H24.627C25.577 32.8971 26.327 32.6472 26.827 32.1305C27.5103 31.4305 27.477 30.5305 27.477 30.0472V28.7972C33.0437 25.0472 36.527 17.1638 32.9104 9.88049ZM25.0104 20.6472L23.2603 23.7138C22.5937 24.8805 21.3437 25.5971 20.0104 25.5971C19.3604 25.5971 18.727 25.4305 18.1603 25.1138C16.5437 24.1972 15.877 22.2805 16.477 20.5971C15.8104 20.2138 15.277 19.6638 14.877 18.9972C14.077 17.5805 14.1104 15.8472 14.9937 14.3638L16.7604 11.2805C17.2604 10.4138 18.0603 9.78048 19.0437 9.53048C20.0103 9.26381 21.0103 9.39714 21.877 9.89714C22.7437 10.3971 23.3603 11.2138 23.627 12.1805C23.827 12.9138 23.7937 13.6972 23.5437 14.4138C24.1937 14.7972 24.727 15.3305 25.1103 15.9971C25.927 17.4138 25.8937 19.1472 25.0104 20.6472Z" fill="white"/>
<path d="M25.8441 37.9139C25.7275 37.9139 25.6108 37.9139 25.4941 37.8639C21.9108 36.8472 18.1108 36.8472 14.5108 37.8639C13.8441 38.0472 13.1608 37.6639 12.9608 36.9972C12.7775 36.3306 13.1608 35.6472 13.8275 35.4472C17.8608 34.2972 22.1441 34.2972 26.1775 35.4472C26.8441 35.6305 27.2275 36.3306 27.0441 36.9972C26.8941 37.5472 26.3941 37.8972 25.8441 37.8972V37.9139Z" fill="white"/>
</svg>
