<svg width="24" height="24" viewBox="0 0 24 24" fill="none" xmlns="http://www.w3.org/2000/svg">
<path d="M20.7336 8.24473C20.1762 5.73775 18.8079 3.9367 17.1153 2.74973C15.4227 1.56275 13.3956 1 11.5003 1C9.605 1 7.57792 1.56299 5.88531 2.73973C4.1927 3.92671 2.82442 5.73799 2.26698 8.23474C1.03046 13.7603 4.32447 18.3852 7.3144 21.2912C8.49011 22.4271 9.99014 23 11.5003 23C13.0105 23 14.5105 22.4271 15.6761 21.2912C18.666 18.3852 21.9701 13.7703 20.7336 8.24473ZM11.5003 14.2304C9.34148 14.2304 7.5779 12.4508 7.5779 10.2713C7.5779 8.09172 9.34148 6.31114 11.5003 6.31114C13.6591 6.31114 15.4227 8.08149 15.4227 10.2713C15.4227 12.461 13.6591 14.2304 11.5003 14.2304Z" fill="#797A7F"/>
<path d="M11.5017 7.8457C12.8295 7.8457 13.9038 8.93047 13.9038 10.2709C13.9038 11.6114 12.8295 12.6952 11.5017 12.6952C10.174 12.6952 9.09961 11.6114 9.09961 10.2709C9.09961 8.93047 10.174 7.8457 11.5017 7.8457Z" fill="#797A7F"/>
</svg>
