<svg width="40" height="40" viewBox="0 0 40 40" fill="none" xmlns="http://www.w3.org/2000/svg">
<g clip-path="url(#clip0_5897_32569)">
<path d="M24.5561 12.0941C24.5561 12.9379 23.8803 13.6008 23.0201 13.6008C18.2481 13.6008 14.2954 17.1366 13.8449 21.8176C13.8449 22.1189 13.8039 22.4002 13.8039 22.7015C13.8039 23.5252 13.128 24.2083 12.2678 24.2083C11.4076 24.2083 10.7318 23.5252 10.7318 22.7015C10.7318 22.4002 10.7318 22.1189 10.6908 21.8377C10.2403 17.1366 6.308 13.6008 1.53604 13.6008C0.675858 13.6008 0 12.9379 0 12.0941C0 11.2503 0.675858 10.5873 1.53604 10.5873C6.308 10.5873 10.2403 7.07163 10.6908 2.3907C10.7318 2.08935 10.7318 1.788 10.7318 1.50674C10.7318 0.683055 11.4281 0 12.2678 0C13.1075 0 13.8039 0.683055 13.8039 1.50674C13.8039 1.80809 13.8244 2.08934 13.8449 2.3706C14.2954 7.07163 18.2481 10.5873 23.0201 10.5873C23.8803 10.5873 24.5561 11.2704 24.5561 12.0941Z" fill="white"/>
<path d="M39.9987 21.0154C39.9987 21.8391 39.3024 22.5221 38.4627 22.5221C35.2472 22.5221 32.5848 24.8927 32.2776 28.0468C32.2776 28.2678 32.2366 28.4687 32.2366 28.6495C32.2366 29.4933 31.5607 30.1563 30.7005 30.1563C29.8403 30.1563 29.1645 29.4933 29.1645 28.6495C29.1645 28.4687 29.1645 28.2678 29.1441 28.087C28.8368 24.8927 26.1743 22.5221 22.9589 22.5221C22.1192 22.5221 21.4229 21.8391 21.4229 21.0154C21.4229 20.1917 22.1192 19.5087 22.9589 19.5087C26.1948 19.5087 28.8368 17.1381 29.1441 13.984C29.1645 13.763 29.1645 13.5821 29.1645 13.3813C29.1645 12.5576 29.8608 11.8745 30.7005 11.8745C31.5402 11.8745 32.2366 12.5576 32.2366 13.3813C32.2366 13.5821 32.2571 13.763 32.2776 13.9639C32.5848 17.1381 35.2472 19.5087 38.4627 19.5087C39.3024 19.5087 39.9987 20.1917 39.9987 21.0154Z" fill="white"/>
<path d="M22.897 32.6052C22.897 33.449 22.2007 34.1119 21.361 34.1119C19.0672 34.1119 17.1625 35.8196 16.9372 38.0696C16.9167 38.2304 16.9168 38.371 16.9168 38.4915C16.9168 39.3353 16.2204 39.9983 15.3807 39.9983C14.541 39.9983 13.8447 39.3353 13.8447 38.4915C13.8447 38.371 13.8447 38.2304 13.8447 38.0897C13.6194 35.8196 11.7351 34.1119 9.44131 34.1119C8.58113 34.1119 7.90527 33.449 7.90527 32.6052C7.90527 31.7614 8.58113 31.0985 9.44131 31.0985C11.7351 31.0985 13.6194 29.4109 13.8447 27.1609C13.8447 27.0001 13.8447 26.8595 13.8447 26.7189C13.8447 25.8952 14.541 25.2122 15.3807 25.2122C16.2204 25.2122 16.9168 25.8952 16.9168 26.7189C16.9168 26.8595 16.9167 27.0001 16.9372 27.1207C17.1625 29.4109 19.0467 31.0985 21.361 31.0985C22.2007 31.0985 22.897 31.7815 22.897 32.6052Z" fill="white"/>
</g>
<defs>
<clipPath id="clip0_5897_32569">
<rect width="40" height="40" fill="white"/>
</clipPath>
</defs>
</svg>
