<svg width="24" height="24" viewBox="0 0 24 24" fill="none" xmlns="http://www.w3.org/2000/svg">
<path d="M16.093 1H7.90698C3.38419 1 1 3.37754 1 7.88774V12.9898C1 18.7244 3.64 19.8775 7.90698 19.8775H8.40838C8.46977 19.8775 8.58232 19.9388 8.62325 19.9796L10.1581 22.0205C10.6186 22.6429 11.294 23 12 23C12.706 23 13.3712 22.6429 13.8419 22.0205L15.3665 19.9796C15.4177 19.9184 15.4995 19.8775 15.5814 19.8775H16.093C20.6056 19.8775 23 17.4898 23 12.9898V7.88774C23 3.37754 20.6056 1 16.093 1ZM13.0233 13.7551H6.88372C6.45395 13.7551 6.11628 13.4081 6.11628 12.9898C6.11628 12.5714 6.45395 12.2245 6.88372 12.2245H13.0233C13.4428 12.2245 13.7907 12.5612 13.7907 12.9898C13.7907 13.4183 13.4428 13.7551 13.0233 13.7551ZM17.1163 8.65304H6.88372C6.45395 8.65304 6.11628 8.3061 6.11628 7.88774C6.11628 7.46937 6.45395 7.12243 6.88372 7.12243H17.1163C17.5358 7.12243 17.8837 7.45917 17.8837 7.88774C17.8837 8.31631 17.5358 8.65304 17.1163 8.65304Z" fill="#797A7F"/>
</svg>
